<?xml version="1.0" encoding="utf-8"?>
<svg viewBox="327.20001220703125 1203 107.5999755859375 98" width="107.5999755859375" height="98" xmlns="http://www.w3.org/2000/svg"><g id="Layer_2_38_" transform="matrix(1, 0, 0, 1, 0, 0)">
	<g id="Layer_1-2_36_">
		<g>
			<path class="st0" d="M397.6,1301h-33.3c-6.4,0-14-4.5-17.3-10.2l-16.6-29c-3.2-5.7-3.2-14.5,0-20.1l16.7-28.8&#10;&#9;&#9;&#9;&#9;c3.2-5.6,10.8-9.9,17.3-9.9h33.3c6.5,0,14.1,4.3,17.3,9.9l16.6,28.8c3.2,5.6,3.2,14.5,0,20.1l-16.6,29&#10;&#9;&#9;&#9;&#9;C411.7,1296.5,404.1,1301,397.6,1301z M364.4,1209c-4.3,0-10,3.2-12.1,6.9l-16.6,28.8c-2.1,3.8-2.1,10.4,0,14.2l16.6,29&#10;&#9;&#9;&#9;&#9;c2.2,3.8,7.9,7.2,12.1,7.2h33.3c4.3,0,9.9-3.4,12.2-7.2l16.6-29c2.2-3.8,2.2-10.3,0-14.1l-16.6-28.8c-2.2-3.7-7.7-6.9-12.1-6.9&#10;&#9;&#9;&#9;&#9;H364.4z" style="fill: rgb(204, 204, 204);"/>
		</g>
	</g>
</g></svg>